<svg width="65" height="64" viewBox="0 0 65 64" fill="none" xmlns="http://www.w3.org/2000/svg">
<rect x="0.666504" width="64" height="64" rx="32" fill="#9CA3AF"/>
<path fill-rule="evenodd" clip-rule="evenodd" d="M25.1665 22C25.1665 20.0109 25.9567 18.1032 27.3632 16.6967C28.7697 15.2902 30.6774 14.5 32.6665 14.5C34.6556 14.5 36.5633 15.2902 37.9698 16.6967C39.3763 18.1032 40.1665 20.0109 40.1665 22C40.1665 23.9891 39.3763 25.8968 37.9698 27.3033C36.5633 28.7098 34.6556 29.5 32.6665 29.5C30.6774 29.5 28.7697 28.7098 27.3632 27.3033C25.9567 25.8968 25.1665 23.9891 25.1665 22ZM18.9182 45.5083C18.9744 41.8991 20.4476 38.4568 23.0198 35.9243C25.592 33.3918 29.0569 31.9724 32.6665 31.9724C36.2762 31.9724 39.741 33.3918 42.3132 35.9243C44.8854 38.4568 46.3586 41.8991 46.4148 45.5083C46.4192 45.7513 46.3526 45.9903 46.2232 46.196C46.0939 46.4017 45.9074 46.5653 45.6865 46.6667C41.6018 48.5395 37.1601 49.5061 32.6665 49.5C28.0232 49.5 23.6115 48.4867 19.6465 46.6667C19.4256 46.5653 19.2391 46.4017 19.1098 46.196C18.9804 45.9903 18.9138 45.7513 18.9182 45.5083Z" fill="black"/>
</svg>
