<svg width="57" height="64" viewBox="0 0 57 64" fill="none" xmlns="http://www.w3.org/2000/svg">
<g clip-path="url(#clip0_93_122)">
<path d="M28.9132 64C28.0552 64 27.2545 63.7668 26.5109 63.3586L18.9036 58.7517C17.7596 58.1102 18.3316 57.877 18.6748 57.7603C20.2191 57.2355 20.5051 57.1189 22.1067 56.1859C22.2782 56.0692 22.507 56.1275 22.6786 56.2442L28.5128 59.8014C28.7416 59.918 29.0276 59.918 29.1992 59.8014L52.0211 46.3307C52.2499 46.214 52.3643 45.9808 52.3643 45.6892V18.806C52.3643 18.5145 52.2499 18.2812 52.0211 18.1646L29.1992 4.75223C28.9704 4.63561 28.6844 4.63561 28.5128 4.75223L5.69085 18.1646C5.46207 18.2812 5.34766 18.5728 5.34766 18.806V45.6892C5.34766 45.9224 5.46207 46.214 5.69085 46.3307L11.9254 50.0045C15.3001 51.7539 17.4164 49.7129 17.4164 47.6719V21.1386C17.4164 20.7888 17.7024 20.4389 18.1028 20.4389H21.0199C21.3631 20.4389 21.7062 20.7305 21.7062 21.1386V47.6719C21.7062 52.2788 19.2467 54.9613 14.9569 54.9613C13.6414 54.9613 12.6118 54.9613 9.69468 53.5034L3.68893 50.0045C2.20179 49.1297 1.28662 47.4969 1.28662 45.7475V18.8644C1.28662 17.115 2.20179 15.4822 3.68893 14.6074L26.5109 1.13672C27.9409 0.320313 29.8856 0.320313 31.3155 1.13672L54.1374 14.6074C55.6246 15.4822 56.5398 17.115 56.5398 18.8644V45.7475C56.5398 47.4969 55.6246 49.1297 54.1374 50.0045L31.3155 63.4752C30.6291 63.7668 29.7712 64 28.9132 64Z" fill="#5FA04E"/>
<path d="M36.0056 45.5142C25.996 45.5142 23.9369 40.849 23.9369 36.8836C23.9369 36.5337 24.2229 36.1839 24.6232 36.1839H27.5975C27.9407 36.1839 28.2267 36.4171 28.2267 36.767C28.6843 39.8576 29.9999 41.3738 36.0628 41.3738C40.8674 41.3738 42.9266 40.2658 42.9266 37.6417C42.9266 36.1255 42.3546 35.0175 34.8616 34.2594C28.6271 33.6179 24.7377 32.2184 24.7377 27.145C24.7377 22.4215 28.6271 19.6224 35.1477 19.6224C42.4689 19.6224 46.0724 22.1883 46.53 27.7865C46.53 27.9615 46.4728 28.1364 46.3584 28.3114C46.2441 28.4279 46.0724 28.5446 45.9008 28.5446H42.8694C42.5833 28.5446 42.2974 28.3114 42.2402 28.0197C41.5538 24.8124 39.7807 23.7627 35.0905 23.7627C29.8282 23.7627 29.1991 25.6289 29.1991 27.0284C29.1991 28.7195 29.9427 29.2444 37.0352 30.1774C44.0705 31.1104 47.388 32.4517 47.388 37.4668C47.388 42.5984 43.2125 45.5142 36.0056 45.5142Z" fill="#5FA04E"/>
</g>
<defs>
<clipPath id="clip0_93_122">
<rect width="56.32" height="64" fill="white" transform="translate(0.653687)"/>
</clipPath>
</defs>
</svg>
