<svg width="71" height="64" viewBox="0 0 71 64" fill="none" xmlns="http://www.w3.org/2000/svg">
<g clip-path="url(#clip0_93_104)">
<path d="M35.6569 38.7725C39.3293 38.7725 42.3063 35.7404 42.3063 32C42.3063 28.2597 39.3293 25.2275 35.6569 25.2275C31.9846 25.2275 29.0076 28.2597 29.0076 32C29.0076 35.7404 31.9846 38.7725 35.6569 38.7725Z" fill="#087EA4"/>
<path d="M35.6569 47.238C54.0186 47.238 68.9037 40.4157 68.9037 31.9999C68.9037 23.5842 54.0186 16.7618 35.6569 16.7618C17.2952 16.7618 2.41016 23.5842 2.41016 31.9999C2.41016 40.4157 17.2952 47.238 35.6569 47.238Z" stroke="#087EA4" stroke-width="3"/>
<path d="M22.7002 39.619C31.881 55.8152 45.1245 65.5336 52.2802 61.3257C59.436 57.1178 57.7943 40.5771 48.6135 24.3809C39.4327 8.18475 26.1892 -1.53366 19.0335 2.67422C11.8777 6.88211 13.5194 23.4228 22.7002 39.619Z" stroke="#087EA4" stroke-width="3"/>
<path d="M22.7003 24.3808C13.5194 40.577 11.8778 57.1177 19.0335 61.3256C26.1893 65.5335 39.4327 55.8151 48.6136 39.6189C57.7944 23.4228 59.4361 6.88205 52.2803 2.67416C45.1245 -1.53372 31.8811 8.18469 22.7003 24.3808Z" stroke="#087EA4" stroke-width="3"/>
</g>
<defs>
<clipPath id="clip0_93_104">
<rect width="69.8182" height="64" fill="white" transform="translate(0.747803)"/>
</clipPath>
</defs>
</svg>
