<svg width="106" height="64" viewBox="0 0 106 64" fill="none" xmlns="http://www.w3.org/2000/svg">
<g clip-path="url(#clip0_93_151)">
<mask id="mask0_93_151" style="mask-type:luminance" maskUnits="userSpaceOnUse" x="0" y="0" width="106" height="63">
<path d="M0.973999 0H105.701V62.8364H0.973999V0Z" fill="white"/>
</mask>
<g mask="url(#mask0_93_151)">
<path fill-rule="evenodd" clip-rule="evenodd" d="M53.3376 0C39.374 0 30.6467 6.98182 27.1558 20.9455C32.3922 13.9636 38.5013 11.3455 45.4831 13.0909C49.4666 14.0858 52.3136 16.9775 55.4651 20.1755C60.5987 25.3867 66.541 31.4182 79.5194 31.4182C93.4831 31.4182 102.21 24.4364 105.701 10.4727C100.465 17.4545 94.3558 20.0727 87.374 18.3273C83.3905 17.3324 80.5434 14.4407 77.3919 11.2427C72.2584 6.03151 66.3161 0 53.3376 0ZM27.1558 31.4182C13.1922 31.4182 4.46491 38.4 0.973999 52.3636C6.21036 45.3818 12.3195 42.7636 19.3013 44.5091C23.2848 45.5059 26.1318 48.3956 29.2833 51.5937C34.4169 56.8048 40.3592 62.8364 53.3376 62.8364C67.3013 62.8364 76.0285 55.8545 79.5194 41.8909C74.2831 48.8727 68.174 51.4909 61.1922 49.7455C57.2087 48.7505 54.3616 45.8589 51.2101 42.6608C46.0765 37.4497 40.1342 31.4182 27.1558 31.4182Z" fill="#38BDF8"/>
</g>
</g>
<defs>
<clipPath id="clip0_93_151">
<rect width="104.727" height="64" fill="white" transform="translate(0.973999)"/>
</clipPath>
</defs>
</svg>
