<svg width="65" height="64" viewBox="0 0 65 64" fill="none" xmlns="http://www.w3.org/2000/svg">
<g clip-path="url(#clip0_93_127)">
<path d="M64.1877 49.59C61.8597 50.182 60.4197 49.616 59.1277 47.676L49.9397 34.964L48.6117 33.204L37.8817 47.718C36.6557 49.464 35.3697 50.224 33.0817 49.606L46.8217 31.162L34.0297 14.502C36.2297 14.074 37.7497 14.292 39.0997 16.262L48.6297 29.132L58.2297 16.332C59.4597 14.586 60.7817 13.922 62.9897 14.566L58.0297 21.142L51.3097 29.892C50.5097 30.892 50.6197 31.576 51.3557 32.542L64.1877 49.59ZM0.203744 30.854L1.32774 25.326C4.38774 14.386 16.9277 9.84002 25.5757 16.6C30.6297 20.576 31.8857 26.2 31.6357 32.5H3.14774C2.71974 43.84 10.8817 50.684 21.2877 47.192C24.9377 45.966 27.0877 43.108 28.1637 39.532C28.7097 37.74 29.6137 37.46 31.2977 37.972C30.4377 42.444 28.4977 46.18 24.3977 48.518C18.2717 52.018 9.52774 50.886 4.92774 46.022C2.18774 43.2 1.05574 39.624 0.547744 35.8C0.467744 35.168 0.307744 34.566 0.187744 33.96C0.198411 32.9254 0.203744 31.8907 0.203744 30.856V30.854ZM3.19974 30.094H28.9437C28.7757 21.894 23.6697 16.07 16.6917 16.02C9.03174 15.96 3.53174 21.646 3.19974 30.094Z" fill="black"/>
</g>
<defs>
<clipPath id="clip0_93_127">
<rect width="64" height="64" fill="white" transform="translate(0.187744)"/>
</clipPath>
</defs>
</svg>
