<svg width="65" height="64" viewBox="0 0 65 64" fill="none" xmlns="http://www.w3.org/2000/svg">
<g clip-path="url(#clip0_93_135)">
<path d="M64.488 31.295C64.314 20.595 58.348 10.177 49.118 4.69099C41.846 0.161987 32.66 -1.05701 24.386 1.03299C11.933 4.16799 2.005 15.446 0.743003 28.3C-0.824997 40.44 5.315 53.066 15.808 59.292C26.084 65.736 40.061 65.475 50.108 58.692C59.165 52.814 64.782 42.092 64.478 31.304L64.488 31.295ZM34.27 59.25C19.727 60.687 5.663 48.365 5.27 33.778C4.17 21.935 11.975 10.222 23.122 6.30299C38.754 0.0329871 57.956 11.615 59.567 28.38C62.093 43.444 49.553 58.78 34.27 59.25ZM24.7 30.38L45.73 13.18L34.366 30.423C31.144 30.423 27.922 30.424 24.7 30.38ZM30.613 33.56L40.279 33.604L19.249 50.847L30.613 33.56Z" fill="#010101"/>
</g>
<defs>
<clipPath id="clip0_93_135">
<rect width="64" height="64" fill="white" transform="translate(0.5)"/>
</clipPath>
</defs>
</svg>
