<svg width="65" height="64" viewBox="0 0 65 64" fill="none" xmlns="http://www.w3.org/2000/svg">
<path d="M53.8054 34.608C51.7548 34.6187 49.9788 35.1107 48.4908 35.8454C47.9468 34.7587 47.3948 33.8027 47.3028 33.092C47.1948 32.2627 47.0694 31.7667 47.2001 30.7787C47.3308 29.7907 47.9028 28.3907 47.8948 28.2854C47.8868 28.18 47.7668 27.6774 46.5841 27.668C45.4014 27.66 44.3894 27.896 44.2708 28.208C44.1521 28.52 43.9241 29.2227 43.7828 29.956C43.5761 31.028 41.4214 34.8534 40.1988 36.8534C39.7988 36.072 39.4588 35.384 39.3881 34.84C39.2801 34.0107 39.1548 33.5147 39.2854 32.5267C39.4161 31.5387 39.9881 30.1387 39.9801 30.0334C39.9721 29.928 39.8521 29.4254 38.6694 29.416C37.4868 29.408 36.4748 29.644 36.3561 29.956C36.2374 30.268 36.1094 30.9974 35.8681 31.704C35.6254 32.4094 32.7628 38.7894 32.0121 40.444C31.6294 41.2867 31.2974 41.964 31.0628 42.4254L31.0614 42.4227C31.0614 42.4227 31.0468 42.4534 31.0228 42.5054C30.8214 42.8987 30.7028 43.116 30.7028 43.116C30.7028 43.116 30.7041 43.1187 30.7068 43.124C30.5468 43.4134 30.3761 43.6814 30.2921 43.6814C30.2334 43.6814 30.1148 42.912 30.3174 41.856C30.7441 39.6427 31.7668 36.192 31.7574 36.072C31.7521 36.0107 31.9481 35.4094 31.0894 35.0947C30.2548 34.7894 29.9574 35.2987 29.8814 35.3C29.8081 35.3014 29.7534 35.48 29.7534 35.48C29.7534 35.48 30.6828 31.5987 27.9801 31.5987C26.2894 31.5987 23.9481 33.448 22.7948 35.124C22.0668 35.5214 20.5081 36.372 18.8561 37.28C18.2214 37.6294 17.5734 37.9854 16.9588 38.324C16.9174 38.2774 16.8748 38.232 16.8321 38.1854C13.5534 34.688 7.49476 32.2147 7.75076 27.512C7.84409 25.8027 8.43876 21.3014 19.3948 15.8427C28.3694 11.3707 35.5548 12.6014 36.7961 15.328C38.5694 19.2254 32.9561 26.4667 23.6361 27.512C20.0854 27.9107 18.2148 26.5334 17.7494 26.0214C17.2601 25.4814 17.1868 25.4574 17.0041 25.5587C16.7068 25.724 16.8948 26.2 17.0041 26.484C17.2828 27.208 18.4241 28.492 20.3708 29.132C22.0841 29.6947 26.2534 30.0027 31.2948 28.052C36.9428 25.868 41.3521 19.7907 40.0561 14.712C38.7388 9.5467 30.1734 7.84803 22.0668 10.728C17.2361 12.4427 12.0134 15.1334 8.25743 18.6454C3.79209 22.8214 3.08009 26.4574 3.37343 27.976C4.41609 33.3734 11.8548 36.888 14.8334 39.492C14.6868 39.5734 14.5481 39.6494 14.4228 39.7187C12.9294 40.4574 7.25876 43.4254 5.84009 46.56C4.23076 50.116 6.09609 52.668 7.33076 53.012C11.1561 54.076 15.0814 52.1614 17.1921 49.0147C19.3014 45.8694 19.0441 41.772 18.0761 39.9027C18.0641 39.88 18.0508 39.8574 18.0388 39.8334C18.4241 39.6054 18.8174 39.3734 19.2068 39.144C19.9668 38.6974 20.7134 38.2814 21.3601 37.9294C20.9974 38.9214 20.7321 40.112 20.5948 41.8307C20.4321 43.8494 21.2601 46.4587 22.3428 47.4854C22.8201 47.9374 23.3934 47.948 23.7561 47.948C25.0161 47.948 25.5908 46.9 26.2241 45.66C27.0001 44.14 27.6894 42.3694 27.6894 42.3694C27.6894 42.3694 26.8254 47.1507 29.1801 47.1507C30.0388 47.1507 30.9014 46.0374 31.2868 45.4707C31.2881 45.4774 31.2881 45.48 31.2881 45.48C31.2881 45.48 31.3108 45.4427 31.3548 45.3694C31.4441 45.2334 31.4948 45.1467 31.4948 45.1467C31.4948 45.1467 31.4961 45.1374 31.4988 45.1214C31.8441 44.5227 32.6094 43.1574 33.7561 40.9054C35.2388 37.996 36.6601 34.3507 36.6601 34.3507C36.6601 34.3507 36.7921 35.2414 37.2254 36.716C37.4801 37.5827 38.0214 38.5414 38.4494 39.4614C38.1054 39.9387 37.8948 40.212 37.8948 40.212C37.8948 40.212 37.8961 40.2174 37.9001 40.2267C37.6254 40.592 37.3174 40.9854 36.9948 41.3694C35.8241 42.7627 34.4308 44.3547 34.2441 44.8134C34.0241 45.3547 34.0761 45.752 34.5014 46.0734C34.8121 46.3067 35.3641 46.344 35.9414 46.3054C36.9934 46.2347 37.7321 45.9734 38.0974 45.8147C38.6668 45.6134 39.3294 45.2974 39.9508 44.84C41.0988 43.996 41.7908 42.7894 41.7241 41.1894C41.6868 40.308 41.4068 39.4347 41.0508 38.6107C41.1548 38.4614 41.2588 38.3094 41.3641 38.1574C43.1734 35.512 44.5774 32.6054 44.5774 32.6054C44.5774 32.6054 44.7094 33.496 45.1428 34.9707C45.3614 35.716 45.7948 36.5307 46.1841 37.328C44.4828 38.7107 43.4281 40.3174 43.0614 41.3707C42.3841 43.32 42.9148 44.2027 43.9094 44.404C44.3601 44.4947 44.9974 44.288 45.4761 44.0854C46.0721 43.888 46.7881 43.5587 47.4574 43.0667C48.6054 42.2227 49.7094 41.0414 49.6428 39.4427C49.6121 38.7147 49.4148 37.992 49.1468 37.2987C50.5894 36.6974 52.4561 36.364 54.8348 36.6414C59.9374 37.2374 60.9374 40.4227 60.7468 41.756C60.5548 43.0894 59.4854 43.8227 59.1268 44.044C58.7694 44.2654 58.6601 44.3427 58.6894 44.5067C58.7334 44.7454 58.8988 44.7374 59.2041 44.6854C59.6241 44.6147 61.8828 43.6014 61.9801 41.14C62.1014 38.012 59.1081 34.58 53.8054 34.608ZM14.4761 47.8667C12.7854 49.7107 10.4254 50.4067 9.41209 49.82C8.31876 49.1867 8.75209 46.472 10.8254 44.5147C12.0894 43.3227 13.7214 42.224 14.8041 41.548C15.0508 41.4 15.4121 41.1827 15.8521 40.9187C15.9254 40.8774 15.9668 40.8547 15.9668 40.8547L15.9654 40.852C16.0508 40.8014 16.1374 40.7494 16.2268 40.6947C16.9828 43.48 16.2508 45.932 14.4761 47.8667ZM26.7894 39.4974C26.2014 40.932 24.9694 44.604 24.2188 44.4067C23.5748 44.2374 23.1828 41.4467 24.0908 38.7C24.5468 37.3174 25.5228 35.6654 26.0961 35.024C27.0188 33.992 28.0348 33.6547 28.2814 34.0734C28.5948 34.6067 27.1588 38.5974 26.7894 39.4974ZM36.9614 44.3507C36.7121 44.4814 36.4828 44.5627 36.3774 44.5C36.2988 44.4534 36.4801 44.2814 36.4801 44.2814C36.4801 44.2814 37.7521 42.912 38.2534 42.2894C38.5454 41.9267 38.8828 41.496 39.2508 41.016C39.2534 41.064 39.2548 41.112 39.2548 41.1587C39.2521 42.7987 37.6681 43.9054 36.9614 44.3507ZM44.7974 42.564C44.6108 42.432 44.6428 42.004 45.2548 40.6694C45.4948 40.1454 46.0441 39.264 46.9961 38.4214C47.1068 38.768 47.1734 39.1 47.1721 39.4094C47.1601 41.4734 45.6881 42.244 44.7974 42.564Z" fill="#F06292"/>
</svg>
