<svg width="64" height="64" viewBox="0 0 64 64" fill="none" xmlns="http://www.w3.org/2000/svg">
<path d="M56.2665 29.4666L34.5332 7.73329C33.8665 7.06663 32.9332 6.66663 31.9998 6.66663C31.0665 6.66663 30.1332 7.06663 29.4665 7.73329L24.7998 12.4L30.2665 17.8666C30.7998 17.6 31.3332 17.4666 31.9998 17.4666C34.2665 17.4666 35.9998 19.2 35.9998 21.4666C35.9998 22.1333 35.8665 22.6666 35.5998 23.2L40.9332 28.5333C41.4665 28.2666 41.9998 28.1333 42.6665 28.1333C44.9332 28.1333 46.6665 29.8666 46.6665 32.1333C46.6665 34.4 44.9332 36.1333 42.6665 36.1333C40.3998 36.1333 38.6665 34.4 38.6665 32.1333C38.6665 31.4666 38.7998 30.9333 39.0665 30.4L33.7332 25.0666C33.5998 25.0666 33.4665 25.2 33.3332 25.2V39.0666C34.9332 39.6 35.9998 41.0666 35.9998 42.8C35.9998 45.0666 34.2665 46.8 31.9998 46.8C29.7332 46.8 27.9998 45.0666 27.9998 42.8C27.9998 41.0666 29.0665 39.6 30.6665 39.0666V25.0666C29.0665 24.5333 27.9998 23.0666 27.9998 21.3333C27.9998 20.6666 28.1332 20.1333 28.3998 19.6L22.9332 14.1333L7.73317 29.4666C7.0665 30.1333 6.6665 31.0666 6.6665 32C6.6665 32.9333 7.0665 33.8666 7.73317 34.5333L29.4665 56.2666C30.1332 56.9333 31.0665 57.3333 31.9998 57.3333C32.9332 57.3333 33.8665 56.9333 34.5332 56.2666L56.2665 34.5333C56.9332 33.8666 57.3332 32.9333 57.3332 32C57.3332 31.0666 56.9332 30.1333 56.2665 29.4666Z" fill="#F4511E"/>
</svg>
