<svg width="31" height="64" viewBox="0 0 31 64" fill="none" xmlns="http://www.w3.org/2000/svg">
<g clip-path="url(#clip0_93_143)">
<path d="M21.0324 7.13325C18.3344 3.94632 16.0112 0.709589 15.5366 0.0373468C15.4866 -0.0124489 15.4117 -0.0124489 15.3617 0.0373468C14.8871 0.709589 12.5638 3.94632 9.86586 7.13325C-13.2915 36.5376 13.5131 56.3813 13.5131 56.3813L13.7379 56.5306C13.9378 59.5932 14.4374 64 14.4374 64H15.4366H16.4359C16.4359 64 16.9355 59.618 17.1354 56.5306L17.3602 56.3565C17.3852 56.3565 44.1898 36.5376 21.0324 7.13325ZM15.4366 55.933C15.4366 55.933 14.2376 54.9123 13.9128 54.3893V54.3397L15.3617 22.3209C15.3617 22.2213 15.5116 22.2213 15.5116 22.3209L16.9605 54.3397V54.3893C16.6357 54.9123 15.4366 55.933 15.4366 55.933Z" fill="#00684A"/>
</g>
<defs>
<clipPath id="clip0_93_143">
<rect width="29.7674" height="64" fill="white" transform="translate(0.44104)"/>
</clipPath>
</defs>
</svg>
