<svg width="44" height="64" viewBox="0 0 44 64" fill="none" xmlns="http://www.w3.org/2000/svg">
<g clip-path="url(#clip0_93_159)">
<path d="M22.0259 32C22.0259 29.1711 23.1497 26.458 25.1501 24.4576C27.1505 22.4572 29.8636 21.3334 32.6925 21.3334C35.5215 21.3334 38.2346 22.4572 40.235 24.4576C42.2354 26.458 43.3592 29.1711 43.3592 32C43.3592 34.829 42.2354 37.5421 40.235 39.5425C38.2346 41.5429 35.5215 42.6667 32.6925 42.6667C29.8636 42.6667 27.1505 41.5429 25.1501 39.5425C23.1497 37.5421 22.0259 34.829 22.0259 32Z" fill="#1ABCFE"/>
<path d="M0.692505 53.3333C0.692505 50.5043 1.81631 47.7912 3.8167 45.7908C5.81709 43.7904 8.5302 42.6666 11.3592 42.6666H22.0258V53.3333C22.0258 56.1623 20.902 58.8754 18.9016 60.8758C16.9013 62.8762 14.1881 64 11.3592 64C8.5302 64 5.81709 62.8762 3.8167 60.8758C1.81631 58.8754 0.692505 56.1623 0.692505 53.3333Z" fill="#0ACF83"/>
<path d="M22.0259 0V21.3333H32.6925C35.5215 21.3333 38.2346 20.2095 40.235 18.2091C42.2354 16.2087 43.3592 13.4956 43.3592 10.6667C43.3592 7.83769 42.2354 5.12458 40.235 3.12419C38.2346 1.12381 35.5215 0 32.6925 0L22.0259 0Z" fill="#FF7262"/>
<path d="M0.692505 10.6667C0.692505 13.4956 1.81631 16.2087 3.8167 18.2091C5.81709 20.2095 8.5302 21.3333 11.3592 21.3333H22.0258V0H11.3592C8.5302 0 5.81709 1.12381 3.8167 3.12419C1.81631 5.12458 0.692505 7.83769 0.692505 10.6667Z" fill="#F24E1E"/>
<path d="M0.692505 32C0.692505 34.829 1.81631 37.5421 3.8167 39.5425C5.81709 41.5429 8.5302 42.6667 11.3592 42.6667H22.0258V21.3334H11.3592C8.5302 21.3334 5.81709 22.4572 3.8167 24.4576C1.81631 26.458 0.692505 29.1711 0.692505 32Z" fill="#A259FF"/>
</g>
<defs>
<clipPath id="clip0_93_159">
<rect width="42.6667" height="64" fill="white" transform="translate(0.692505)"/>
</clipPath>
</defs>
</svg>
