<svg width="65" height="64" viewBox="0 0 65 64" fill="none" xmlns="http://www.w3.org/2000/svg">
<g clip-path="url(#clip0_93_99)">
<path d="M61.8739 0H3.8739C2.21705 0 0.873901 1.34315 0.873901 3V61C0.873901 62.6569 2.21705 64 3.8739 64H61.8739C63.5308 64 64.8739 62.6569 64.8739 61V3C64.8739 1.34315 63.5308 0 61.8739 0Z" fill="#3178C6"/>
<path fill-rule="evenodd" clip-rule="evenodd" d="M38.005 49.734V56.747C39.1412 57.331 40.4849 57.7695 42.0363 58.0615C43.5876 58.354 45.2227 58.5 46.9415 58.5C48.6167 58.5 50.208 58.3395 51.7154 58.018C53.2234 57.6965 54.5449 57.167 55.6814 56.429C56.8174 55.691 57.7169 54.727 58.3799 53.536C59.0424 52.3455 59.3739 50.8735 59.3739 49.1203C59.3739 47.8493 59.1844 46.7353 58.8059 45.7783C58.4269 44.8214 57.8809 43.9704 57.1669 43.2252C56.4534 42.4801 55.5974 41.8117 54.5999 41.22C53.6019 40.6283 52.4769 40.0694 51.2239 39.5435C50.3063 39.1636 49.4833 38.7947 48.755 38.4368C48.0266 38.0788 47.4076 37.7136 46.8978 37.341C46.388 36.9684 45.9947 36.574 45.7179 36.1576C45.4412 35.7413 45.3027 35.27 45.3027 34.7441C45.3027 34.2619 45.4266 33.8273 45.6742 33.4402C45.9219 33.053 46.2715 32.7206 46.723 32.443C47.1745 32.1655 47.7281 31.95 48.3836 31.7966C49.0391 31.6431 49.7673 31.5664 50.5685 31.5664C51.1514 31.5664 51.7664 31.6103 52.4149 31.6979C53.0629 31.7856 53.7149 31.9207 54.3704 32.1034C55.0259 32.286 55.6629 32.5161 56.2824 32.7937C56.9014 33.0713 57.4729 33.3927 57.9974 33.7579V27.2054C56.9339 26.7963 55.7724 26.4931 54.5124 26.2959C53.2524 26.0986 51.8069 26 50.1752 26C48.5147 26 46.9415 26.1789 45.4557 26.5369C43.97 26.8948 42.6626 27.4537 41.5337 28.2134C40.4048 28.9731 39.5126 29.941 38.8572 31.1171C38.2017 32.2932 37.8739 33.6995 37.8739 35.3358C37.8739 37.4251 38.4748 39.2074 39.6765 40.683C40.8783 42.1587 42.7027 43.4079 45.1498 44.4305C46.1112 44.825 47.0071 45.2122 47.8373 45.592C48.6676 45.9719 49.385 46.3664 49.9895 46.7755C50.594 47.1846 51.0709 47.6302 51.4204 48.1123C51.7704 48.5944 51.9449 49.1423 51.9449 49.7559C51.9449 50.209 51.8359 50.629 51.6174 51.016C51.3989 51.403 51.0674 51.739 50.6231 52.024C50.1788 52.309 49.6254 52.532 48.9626 52.6925C48.2998 52.853 47.5242 52.9335 46.6356 52.9335C45.1207 52.9335 43.6204 52.667 42.1346 52.1335C40.6488 51.6005 39.2723 50.8005 38.005 49.734ZM26.2252 32.2772H35.3739V26.5H9.8739V32.2772H18.9779V58H26.2252V32.2772Z" fill="white"/>
</g>
<defs>
<clipPath id="clip0_93_99">
<rect width="64" height="64" fill="white" transform="translate(0.873901)"/>
</clipPath>
</defs>
</svg>
