<svg width="181" height="41" viewBox="0 0 181 41" fill="none" xmlns="http://www.w3.org/2000/svg">
<path fill-rule="evenodd" clip-rule="evenodd" d="M18.1341 40.2185H8.78373C7.5956 40.2185 6.63242 39.2553 6.63242 38.0671C6.63242 36.8789 7.5956 35.9157 8.78373 35.9157H18.1341C23.2206 35.9157 27.3588 32.373 27.3588 28.0176V12.2005C27.3588 7.84544 23.2206 4.3027 18.1341 4.3027H13.5274C8.44083 4.3027 4.30262 7.84544 4.30262 12.2005V21.9484C4.30262 24.7296 6.99165 26.9923 10.297 26.9923H16.8904C18.5483 26.9923 19.8974 25.9135 19.8974 24.5874V14.0107C19.8974 12.6846 18.5483 11.6054 16.8904 11.6054H14.5933C13.4051 11.6054 12.442 10.6427 12.442 9.45445C12.442 8.26625 13.4051 7.3031 14.5933 7.3031H16.8904C20.9208 7.3031 24.1998 10.3121 24.1998 14.0107V24.5874C24.1998 28.286 20.9208 31.295 16.8904 31.295H10.297C4.61919 31.295 0 27.1021 0 21.9484V12.2005C0 5.47293 6.0684 0 13.5274 0H18.1341C25.5931 0 31.6615 5.47293 31.6615 12.2005V28.0176C31.6615 34.7455 25.5931 40.2185 18.1341 40.2185Z" fill="white"/>
<path fill-rule="evenodd" clip-rule="evenodd" d="M14.6802 20.4229H13.5639C12.9469 20.4229 12.4452 19.9212 12.4452 19.3043V14.2256C12.4452 13.0374 11.4821 12.0742 10.2939 12.0742C9.1058 12.0742 8.14258 13.0374 8.14258 14.2256V20.108C8.14258 20.5792 8.29594 21.0137 8.55312 21.3681C9.36677 23.3362 11.3054 24.7256 13.5639 24.7256H14.6802C15.8684 24.7256 16.8315 23.7625 16.8315 22.5743C16.8315 21.3861 15.8684 20.4229 14.6802 20.4229Z" fill="#72B94B"/>
<path d="M49.065 18.5231V21.4609H53.9276V25.4119C53.4774 25.6595 53.0159 25.8396 52.5431 25.9522C52.0929 26.0647 51.5076 26.121 50.7872 26.121C49.4589 26.121 48.2658 25.8396 47.2077 25.2768C46.1721 24.6915 45.3504 23.8923 44.7426 22.8792C44.1572 21.8662 43.8646 20.7293 43.8646 19.4686C43.8646 18.2079 44.1685 17.1048 44.7763 16.1593C45.3842 15.1912 46.1834 14.4596 47.1739 13.9643C48.1645 13.4465 49.2225 13.1876 50.3482 13.1876C51.2036 13.1876 52.0366 13.3114 52.847 13.5591C53.68 13.7842 54.4117 14.0656 55.042 14.4033L55.5148 14.6059L56.8993 12.0733L56.4265 11.8031C54.513 10.7 52.4531 10.1484 50.2469 10.1484C48.2433 10.1484 46.4985 10.5874 45.0127 11.4654C43.5494 12.3434 42.435 13.5028 41.6696 14.9436C40.9042 16.3844 40.5215 17.9377 40.5215 19.6037C40.5215 21.202 40.8817 22.7329 41.6021 24.1962C42.3225 25.6595 43.4143 26.8639 44.8776 27.8094C46.3409 28.7325 48.1307 29.194 50.2469 29.194C53.2185 29.1264 55.526 28.3835 57.1694 26.9652V18.5231H49.065Z" fill="white"/>
<path d="M60.2804 15.9229V28.89H63.4884V18.8945C64.1638 18.6469 64.8729 18.5231 65.6158 18.5231C66.6964 18.5231 67.6194 18.7482 68.3849 19.1984L68.5199 19.1647L69.1615 16.2268C68.4186 15.8891 67.6307 15.7203 66.7977 15.7203C65.447 15.7203 64.175 16.103 62.9819 16.8684L62.5766 15.9229H60.2804Z" fill="white"/>
<path d="M76.4471 15.7203C75.389 15.7203 74.3985 16.0017 73.4755 16.5645C72.575 17.1048 71.8433 17.8927 71.2805 18.9283C70.7177 19.9413 70.4363 21.1233 70.4363 22.474C70.4363 24.5001 71.0216 26.1323 72.1923 27.3705C73.3629 28.6086 75.0626 29.2277 77.2913 29.2277C78.8897 29.2277 80.4206 28.9688 81.8839 28.4511L81.3098 26.2561C80.2292 26.5262 79.036 26.6613 77.7303 26.6613C76.4921 26.6613 75.5354 26.4474 74.86 26.0197C74.1846 25.592 73.8019 24.8265 73.7119 23.7234H82.5255V22.474C82.5255 20.3803 81.9964 18.7369 80.9384 17.5438C79.9028 16.3281 78.4057 15.7203 76.4471 15.7203ZM76.5147 18.2529C77.3476 18.2529 78.023 18.5343 78.5408 19.0971C79.0586 19.6374 79.3175 20.4254 79.3175 21.4609H73.7794C73.8244 20.4479 74.1171 19.6599 74.6574 19.0971C75.2202 18.5343 75.8393 18.2529 76.5147 18.2529Z" fill="white"/>
<path d="M90.4822 15.7203C89.4241 15.7203 88.4336 16.0017 87.5106 16.5645C86.6101 17.1048 85.8784 17.8927 85.3156 18.9283C84.7528 19.9413 84.4714 21.1233 84.4714 22.474C84.4714 24.5001 85.0567 26.1323 86.2274 27.3705C87.398 28.6086 89.0977 29.2277 91.3264 29.2277C92.9248 29.2277 94.4557 28.9688 95.919 28.4511L95.3449 26.2561C94.2643 26.5262 93.0711 26.6613 91.7654 26.6613C90.5272 26.6613 89.5705 26.4474 88.8951 26.0197C88.2197 25.592 87.837 24.8265 87.747 23.7234H96.5606V22.474C96.5606 20.3803 96.0315 18.7369 94.9734 17.5438C93.9379 16.3281 92.4408 15.7203 90.4822 15.7203ZM90.5498 18.2529C91.3827 18.2529 92.0581 18.5343 92.5759 19.0971C93.0937 19.6374 93.3526 20.4254 93.3526 21.4609H87.8145C87.8595 20.4479 88.1522 19.6599 88.6925 19.0971C89.2553 18.5343 89.8744 18.2529 90.5498 18.2529Z" fill="white"/>
<path d="M99.1143 15.9229V28.89H102.322V19.1984C103.628 18.7257 104.675 18.4893 105.463 18.4893C106.341 18.4893 106.949 18.7594 107.286 19.2997C107.624 19.84 107.793 20.4479 107.793 21.1233V28.89H111.001V21.5285C111.001 20.5154 110.9 19.6037 110.697 18.7932C110.517 17.9828 110.078 17.2736 109.38 16.6658C108.705 16.058 107.68 15.754 106.307 15.754C104.844 15.754 103.347 16.1255 101.816 16.8684L101.411 15.9229H99.1143Z" fill="white"/>
<path d="M113.004 28.89H116.246L118.103 23.9936H124.958L126.849 28.89H130.192L123.767 11.8185C123.427 10.9153 122.563 10.3173 121.598 10.3173C120.633 10.3173 119.769 10.9153 119.429 11.8185L113.004 28.89ZM119.15 21.0219L121.514 14.0656L123.877 21.0219H119.15Z" fill="white"/>
<path d="M132.359 15.9229V35.8464H135.6V28.5186C136.118 28.7437 136.58 28.9126 136.985 29.0251C137.413 29.1377 137.885 29.194 138.403 29.194C140.497 29.194 142.118 28.5974 143.266 27.4042C144.436 26.1886 145.022 24.5339 145.022 22.4402C145.022 20.8193 144.695 19.5136 144.042 18.5231C143.412 17.51 142.624 16.7896 141.679 16.3619C140.733 15.9341 139.788 15.7203 138.842 15.7203C137.536 15.7203 136.253 16.0692 134.992 16.7671L134.621 15.9229H132.359ZM137.964 18.2867C140.463 18.2867 141.712 19.7275 141.712 22.6091C141.712 24.0274 141.352 25.0629 140.632 25.7158C139.934 26.3461 139.011 26.6613 137.863 26.6613C137.03 26.6613 136.287 26.4474 135.634 26.0197V18.7594C136.354 18.4443 137.131 18.2867 137.964 18.2867Z" fill="white"/>
<path d="M153.033 15.7203C151.975 15.7203 150.985 16.0017 150.062 16.5645C149.161 17.1048 148.43 17.8927 147.867 18.9283C147.304 19.9413 147.023 21.1233 147.023 22.474C147.023 24.5001 147.608 26.1323 148.779 27.3705C149.949 28.6086 151.649 29.2277 153.878 29.2277C155.476 29.2277 157.007 28.9688 158.47 28.4511L157.896 26.2561C156.815 26.5262 155.622 26.6613 154.317 26.6613C153.078 26.6613 152.122 26.4474 151.446 26.0197C150.771 25.592 150.388 24.8265 150.298 23.7234H159.112V22.474C159.112 20.3803 158.583 18.7369 157.525 17.5438C156.489 16.3281 154.992 15.7203 153.033 15.7203ZM153.101 18.2529C153.934 18.2529 154.609 18.5343 155.127 19.0971C155.645 19.6374 155.904 20.4254 155.904 21.4609H150.366C150.411 20.4479 150.703 19.6599 151.244 19.0971C151.806 18.5343 152.426 18.2529 153.101 18.2529Z" fill="white"/>
<path d="M180.592 8.11671L172.407 18.2917C175.129 21.6766 177.855 25.0645 180.583 28.4557C180.511 28.4605 180.462 28.4668 180.415 28.4668C179.157 28.4668 177.898 28.4675 176.639 28.469C176.594 28.4718 176.55 28.463 176.51 28.4437C176.469 28.4244 176.434 28.395 176.409 28.3586C173.739 25.0363 171.068 21.7157 168.394 18.3967C168.321 18.3073 168.339 18.257 168.402 18.1784C170.979 14.9777 173.556 11.7768 176.13 8.57593C176.252 8.42567 176.348 8.21921 176.507 8.14549C176.7 8.09775 176.9 8.08881 177.096 8.11923C178.191 8.11829 179.287 8.11829 180.381 8.11923L180.592 8.11671Z" fill="#72B94B"/>
<path d="M176.495 28.8755C176.411 28.8777 176.327 28.86 176.251 28.8239C176.175 28.7877 176.109 28.734 176.058 28.6675C173.176 25.1016 170.555 21.8614 168.044 18.7642C167.974 18.6897 167.937 18.5916 167.939 18.4902C167.94 18.3888 167.981 18.292 168.053 18.2196C170 15.8144 171.948 13.4092 173.895 11.0036L175.781 8.67326C175.811 8.63479 175.841 8.5924 175.87 8.55028C175.96 8.39187 176.092 8.26088 176.252 8.17151C176.426 8.10617 176.615 8.08614 176.798 8.11338C176.85 8.11863 176.901 8.12107 176.954 8.12069C177.759 8.12069 178.564 8.12069 179.369 8.12069H181L172.602 18.4978L180.964 28.8303L180.394 28.8682C180.348 28.8718 180.309 28.8744 180.273 28.8744H179.21C178.306 28.8744 177.402 28.8752 176.498 28.8769L176.495 28.8755ZM176.485 28.3516H176.495C177.4 28.3493 178.305 28.3486 179.21 28.3493H179.897L171.924 18.4961L179.898 8.64265H176.955C176.896 8.64462 176.827 8.63871 176.763 8.63422C176.668 8.61978 176.571 8.62321 176.478 8.64433C176.41 8.69974 176.352 8.76723 176.308 8.8434C176.271 8.89703 176.234 8.95036 176.194 8.99865L174.308 11.3291C172.374 13.7183 170.441 16.1073 168.507 18.4961C171.006 21.5799 173.611 24.7989 176.472 28.3398C176.476 28.3435 176.478 28.3471 176.482 28.3505L176.485 28.3516Z" fill="#72B94B"/>
<path d="M162.329 16.6623L166.967 22.3605L162.334 28.0526C162.375 28.0554 162.402 28.0583 162.429 28.0583C163.142 28.0583 163.855 28.0583 164.568 28.0583C164.594 28.0599 164.62 28.055 164.642 28.0442C164.666 28.0334 164.685 28.0171 164.7 27.9966C166.212 26.1361 167.726 24.2767 169.241 22.4187C169.282 22.3687 169.273 22.3405 169.236 22.2965C167.776 20.5043 166.316 18.7116 164.857 16.9182C164.788 16.8337 164.733 16.7184 164.643 16.6771C164.534 16.6505 164.421 16.6455 164.31 16.6623C163.69 16.6623 163.069 16.6623 162.448 16.6623H162.329Z" fill="white"/>
<path d="M164.06 28.875H164.058C163.522 28.8736 162.987 28.8736 162.453 28.875H161.81C161.774 28.875 161.739 28.8727 161.697 28.8696L161.667 28.8673L160.362 28.7861L165.706 22.3631L160.288 15.8509H163.787C163.805 15.8509 163.824 15.849 163.843 15.848C164.041 15.8249 164.242 15.8524 164.426 15.9279C164.606 16.0167 164.759 16.1525 164.864 16.3199C164.874 16.334 164.883 16.3481 164.893 16.3607L166.104 17.815C167.233 19.1725 168.364 20.5301 169.494 21.8879C169.611 22.0196 169.675 22.1868 169.676 22.3598C169.677 22.5327 169.613 22.7005 169.498 22.8332C167.907 24.7427 166.317 26.6538 164.728 28.5663C164.649 28.6637 164.547 28.7422 164.431 28.7958C164.315 28.8493 164.188 28.8767 164.06 28.8755V28.875ZM163.124 27.5633H163.817C165.258 25.8282 166.701 24.0942 168.144 22.3614C167.109 21.1184 166.075 19.8753 165.041 18.632L163.83 17.1771C163.825 17.1715 163.82 17.1653 163.816 17.1594C163.806 17.1599 163.797 17.1599 163.786 17.1594H163.125L167.453 22.3611L163.124 27.5633Z" fill="white"/>
</svg>
