<svg width="142" height="32" viewBox="0 0 142 32" fill="none" xmlns="http://www.w3.org/2000/svg">
<g clip-path="url(#clip0_93_208)">
<path fill-rule="evenodd" clip-rule="evenodd" d="M14.1534 31.39H6.85559C5.92827 31.39 5.17652 30.6383 5.17652 29.7109C5.17652 28.7835 5.92827 28.0318 6.85559 28.0318H14.1534C18.1234 28.0318 21.3532 25.2667 21.3532 21.8674V9.52234C21.3532 6.12327 18.1234 3.3582 14.1534 3.3582H10.558C6.58797 3.3582 3.35814 6.12327 3.35814 9.52234V17.1305C3.35814 19.3012 5.4569 21.0672 8.03668 21.0672H13.1828C14.4767 21.0672 15.5297 20.2252 15.5297 19.1902V10.9352C15.5297 9.90018 14.4767 9.05787 13.1828 9.05787H11.3899C10.4625 9.05787 9.71083 8.3065 9.71083 7.37908C9.71083 6.45171 10.4625 5.69998 11.3899 5.69998H13.1828C16.3284 5.69998 18.8876 8.04847 18.8876 10.9352V19.1902C18.8876 22.0769 16.3284 24.4254 13.1828 24.4254H8.03668C3.60522 24.4254 0 21.1529 0 17.1305V9.52234C0 4.27155 4.73631 0 10.558 0H14.1534C19.9751 0 24.7114 4.27155 24.7114 9.52234V21.8674C24.7114 27.1184 19.9751 31.39 14.1534 31.39Z" fill="black"/>
<path fill-rule="evenodd" clip-rule="evenodd" d="M11.4578 15.9399H10.5865C10.1049 15.9399 9.71337 15.5483 9.71337 15.0668V11.103C9.71337 10.1756 8.96168 9.42383 8.0343 9.42383C7.10701 9.42383 6.35522 10.1756 6.35522 11.103V15.6941C6.35522 16.0619 6.47492 16.401 6.67565 16.6776C7.31069 18.2137 8.82377 19.2981 10.5865 19.2981H11.4578C12.3851 19.2981 13.1368 18.5464 13.1368 17.619C13.1368 16.6917 12.3851 15.9399 11.4578 15.9399Z" fill="#72B94B"/>
<path d="M38.2947 14.457V16.7499H42.0899V19.8336C41.7385 20.0269 41.3783 20.1674 41.0093 20.2553C40.6579 20.3431 40.2011 20.3871 39.6388 20.3871C38.6021 20.3871 37.6709 20.1674 36.8451 19.7282C36.0368 19.2714 35.3955 18.6476 34.9211 17.8569C34.4642 17.0663 34.2358 16.1789 34.2358 15.195C34.2358 14.211 34.473 13.35 34.9474 12.6121C35.4219 11.8565 36.0456 11.2855 36.8187 10.8989C37.5919 10.4948 38.4176 10.2927 39.2962 10.2927C39.9638 10.2927 40.614 10.3893 41.2465 10.5827C41.8966 10.7584 42.4677 10.978 42.9597 11.2416L43.3287 11.3997L44.4093 9.42302L44.0402 9.21213C42.5468 8.35117 40.9391 7.92065 39.2171 7.92065C37.6534 7.92065 36.2916 8.26329 35.1319 8.94856C33.9898 9.63382 33.1201 10.5387 32.5227 11.6632C31.9253 12.7878 31.6266 14.0001 31.6266 15.3004C31.6266 16.5479 31.9077 17.7427 32.47 18.8848C33.0322 20.0269 33.8844 20.9669 35.0265 21.7048C36.1686 22.4253 37.5655 22.7855 39.2171 22.7855C41.5364 22.7328 43.3374 22.1529 44.6201 21.046V14.457H38.2947Z" fill="black"/>
<path d="M47.0481 12.4277V22.5483H49.5519V14.747C50.079 14.5537 50.6325 14.4571 51.2123 14.4571C52.0557 14.4571 52.7761 14.6328 53.3736 14.9841L53.4789 14.9578L53.9797 12.6648C53.3999 12.4013 52.7849 12.2695 52.1348 12.2695C51.0806 12.2695 50.0878 12.5682 49.1566 13.1656L48.8403 12.4277H47.0481Z" fill="black"/>
<path d="M59.6661 12.2695C58.8403 12.2695 58.0672 12.4892 57.3468 12.9284C56.644 13.3501 56.0729 13.9651 55.6336 14.7733C55.1944 15.564 54.9747 16.4865 54.9747 17.5407C54.9747 19.1221 55.4315 20.396 56.3453 21.3624C57.2589 22.3287 58.5855 22.8119 60.325 22.8119C61.5725 22.8119 62.7674 22.6098 63.9094 22.2058L63.4614 20.4926C62.618 20.7034 61.6867 20.8088 60.6676 20.8088C59.7012 20.8088 58.9545 20.6419 58.4274 20.3081C57.9002 19.9743 57.6015 19.3768 57.5313 18.5159H64.4102V17.5407C64.4102 15.9066 63.9972 14.624 63.1715 13.6928C62.3632 12.7439 61.1947 12.2695 59.6661 12.2695ZM59.7188 14.2462C60.3689 14.2462 60.8961 14.4658 61.3002 14.9051C61.7043 15.3268 61.9064 15.9418 61.9064 16.75H57.584C57.6191 15.9594 57.8476 15.3443 58.2692 14.9051C58.7085 14.4658 59.1917 14.2462 59.7188 14.2462Z" fill="black"/>
<path d="M70.6203 12.2695C69.7945 12.2695 69.0214 12.4892 68.301 12.9284C67.5982 13.3501 67.0271 13.9651 66.5878 14.7733C66.1486 15.564 65.929 16.4865 65.929 17.5407C65.929 19.1221 66.3858 20.396 67.2995 21.3624C68.2131 22.3287 69.5397 22.8119 71.2792 22.8119C72.5267 22.8119 73.7216 22.6098 74.8637 22.2058L74.4156 20.4926C73.5722 20.7034 72.6409 20.8088 71.6218 20.8088C70.6554 20.8088 69.9087 20.6419 69.3816 20.3081C68.8545 19.9743 68.5558 19.3768 68.4855 18.5159H75.3644V17.5407C75.3644 15.9066 74.9515 14.624 74.1256 13.6928C73.3174 12.7439 72.149 12.2695 70.6203 12.2695ZM70.6731 14.2462C71.3231 14.2462 71.8503 14.4658 72.2544 14.9051C72.6586 15.3268 72.8606 15.9418 72.8606 16.75H68.5382C68.5733 15.9594 68.8018 15.3443 69.2235 14.9051C69.6627 14.4658 70.1459 14.2462 70.6731 14.2462Z" fill="black"/>
<path d="M77.3575 12.4277V22.5484H79.8611V14.9842C80.8804 14.6153 81.6976 14.4308 82.3126 14.4308C82.9979 14.4308 83.4724 14.6416 83.7355 15.0633C83.9993 15.485 84.1312 15.9594 84.1312 16.4866V22.5484H86.635V16.8028C86.635 16.0121 86.5561 15.3005 86.3977 14.668C86.2572 14.0354 85.9146 13.4819 85.3698 13.0075C84.843 12.5332 84.043 12.2959 82.9714 12.2959C81.8295 12.2959 80.6611 12.5859 79.4662 13.1657L79.1501 12.4277H77.3575Z" fill="black"/>
<path d="M88.1982 22.5483H90.7286L92.1779 18.7267H97.5282L99.0041 22.5483H101.613L96.5986 9.22416C96.3333 8.51922 95.6589 8.05249 94.9058 8.05249C94.1526 8.05249 93.4782 8.51922 93.2129 9.22416L88.1982 22.5483ZM92.9951 16.4073L94.8402 10.978L96.6845 16.4073H92.9951Z" fill="black"/>
<path d="M103.305 12.4277V27.9777H105.834V22.2584C106.238 22.4341 106.599 22.566 106.915 22.6538C107.249 22.7416 107.618 22.7856 108.022 22.7856C109.656 22.7856 110.921 22.32 111.817 21.3887C112.731 20.4399 113.188 19.1484 113.188 17.5143C113.188 16.2492 112.933 15.2302 112.423 14.4571C111.931 13.6664 111.316 13.1041 110.579 12.7703C109.84 12.4364 109.103 12.2695 108.364 12.2695C107.345 12.2695 106.344 12.5418 105.36 13.0865L105.07 12.4277H103.305ZM107.679 14.2726C109.63 14.2726 110.604 15.3971 110.604 17.6462C110.604 18.7531 110.324 19.5613 109.762 20.0709C109.217 20.5628 108.496 20.8088 107.6 20.8088C106.95 20.8088 106.37 20.6419 105.861 20.3081V14.6415C106.423 14.3956 107.029 14.2726 107.679 14.2726Z" fill="black"/>
<path d="M119.44 12.2695C118.615 12.2695 117.842 12.4892 117.122 12.9284C116.418 13.3501 115.848 13.9651 115.408 14.7733C114.969 15.564 114.75 16.4865 114.75 17.5407C114.75 19.1221 115.206 20.396 116.12 21.3624C117.033 22.3287 118.36 22.8119 120.1 22.8119C121.347 22.8119 122.542 22.6098 123.684 22.2058L123.236 20.4926C122.392 20.7034 121.461 20.8088 120.443 20.8088C119.475 20.8088 118.729 20.6419 118.202 20.3081C117.675 19.9743 117.376 19.3768 117.306 18.5159H124.185V17.5407C124.185 15.9066 123.772 14.624 122.946 13.6928C122.138 12.7439 120.969 12.2695 119.44 12.2695ZM119.493 14.2462C120.144 14.2462 120.67 14.4658 121.075 14.9051C121.479 15.3268 121.681 15.9418 121.681 16.75H117.359C117.394 15.9594 117.622 15.3443 118.044 14.9051C118.483 14.4658 118.967 14.2462 119.493 14.2462Z" fill="black"/>
<path d="M140.95 6.33506L134.562 14.2765C136.686 16.9184 138.814 19.5626 140.943 22.2094C140.887 22.2131 140.848 22.2181 140.812 22.2181C139.83 22.2181 138.847 22.2186 137.865 22.2198C137.83 22.222 137.795 22.2151 137.764 22.2C137.732 22.185 137.705 22.162 137.685 22.1336C135.601 19.5406 133.517 16.9489 131.43 14.3585C131.373 14.2887 131.387 14.2494 131.436 14.1881C133.447 11.69 135.458 9.19172 137.467 6.69348C137.563 6.5762 137.638 6.41506 137.762 6.35753C137.912 6.32026 138.068 6.31329 138.221 6.33703C139.076 6.3363 139.931 6.3363 140.785 6.33703L140.95 6.33506Z" fill="#72B94B"/>
<path d="M137.752 22.537C137.687 22.5388 137.621 22.525 137.562 22.4968C137.502 22.4685 137.451 22.4266 137.411 22.3747C135.162 19.5916 133.116 17.0626 131.156 14.6453C131.102 14.5872 131.073 14.5106 131.074 14.4314C131.075 14.3523 131.107 14.2768 131.163 14.2203C132.683 12.343 134.203 10.4658 135.723 8.58825L137.195 6.76945C137.218 6.73942 137.242 6.70634 137.264 6.67346C137.335 6.54983 137.438 6.44759 137.562 6.37784C137.698 6.32684 137.846 6.31121 137.989 6.33247C138.029 6.33657 138.069 6.33847 138.11 6.33817C138.739 6.33817 139.367 6.33817 139.995 6.33817H141.268L134.714 14.4374L141.24 22.5018L140.795 22.5314C140.759 22.5342 140.729 22.5362 140.701 22.5362H139.871C139.166 22.5362 138.46 22.5368 137.754 22.5381L137.752 22.537ZM137.744 22.1282H137.752C138.458 22.1264 139.165 22.1258 139.871 22.1264H140.407L134.185 14.4361L140.408 6.74556H138.111C138.065 6.74709 138.011 6.74248 137.961 6.73898C137.887 6.72771 137.811 6.73038 137.739 6.74687C137.686 6.79011 137.641 6.84279 137.606 6.90224C137.577 6.9441 137.548 6.98572 137.517 7.02341L136.045 8.8423C134.536 10.707 133.027 12.5716 131.518 14.4361C133.468 16.8429 135.501 19.3553 137.734 22.1189C137.737 22.1218 137.739 22.1246 137.742 22.1273L137.744 22.1282Z" fill="#72B94B"/>
<path d="M126.696 13.0047L130.316 17.452L126.7 21.8946C126.732 21.8968 126.753 21.8991 126.774 21.8991C127.33 21.8991 127.887 21.8991 128.443 21.8991C128.464 21.9003 128.484 21.8965 128.501 21.8881C128.52 21.8797 128.535 21.8669 128.546 21.8509C129.726 20.3988 130.908 18.9476 132.091 17.4975C132.123 17.4584 132.116 17.4364 132.087 17.4021C130.947 16.0033 129.808 14.6041 128.669 13.2044C128.615 13.1384 128.572 13.0484 128.502 13.0162C128.417 12.9954 128.329 12.9915 128.242 13.0047C127.758 13.0047 127.273 13.0047 126.789 13.0047H126.696Z" fill="black"/>
<path d="M128.047 22.5366H128.045C127.627 22.5356 127.209 22.5356 126.793 22.5366H126.291C126.263 22.5366 126.235 22.5349 126.202 22.5324L126.179 22.5306L125.161 22.4673L129.331 17.4542L125.103 12.3715H127.834C127.848 12.3715 127.863 12.37 127.877 12.3692C128.032 12.3512 128.189 12.3727 128.332 12.4316C128.473 12.5009 128.592 12.6069 128.674 12.7375C128.682 12.7486 128.689 12.7596 128.697 12.7694L129.642 13.9045C130.523 14.964 131.406 16.0236 132.288 17.0833C132.379 17.1861 132.429 17.3166 132.43 17.4516C132.431 17.5866 132.381 17.7175 132.291 17.8211C131.049 19.3114 129.808 20.803 128.568 22.2957C128.506 22.3717 128.427 22.433 128.336 22.4748C128.246 22.5166 128.147 22.5376 128.047 22.5366ZM127.316 21.5129H127.857C128.982 20.1587 130.108 18.8053 131.234 17.4529C130.426 16.4827 129.619 15.5125 128.812 14.5421L127.867 13.4066C127.863 13.4022 127.859 13.3974 127.856 13.3928C127.849 13.3932 127.842 13.3932 127.833 13.3928H127.317L130.695 17.4526L127.316 21.5129Z" fill="black"/>
</g>
<defs>
<clipPath id="clip0_93_208">
<rect width="141.268" height="32" fill="white"/>
</clipPath>
</defs>
</svg>
